<?xml version="1.0" encoding="UTF-8"?>
<svg width="175px" height="50px" viewBox="0 0 175 50" version="1.1" xmlns="http://www.w3.org/2000/svg" xmlns:xlink="http://www.w3.org/1999/xlink">
    <!-- Generator: Sketch 57.1 (83088) - https://sketch.com -->
    <title>Slice</title>
    <desc>Created with Sketch.</desc>
    <g id="Page-1" stroke="none" stroke-width="1" fill="none" fill-rule="evenodd">
        <path d="M20.38,10.64 L18.88,10.38 L18.88,9.14 L21.9,9.14 C22.1800014,9.14 22.6133304,9.1266668 23.2,9.1 C23.9733372,9.0466664 24.6733302,9.02 25.3,9.02 C26.6866736,9.02 27.7833293,9.1899983 28.59,9.53 C29.3966707,9.8700017 29.9699983,10.3566635 30.31,10.99 C30.6500017,11.6233365 30.82,12.4266618 30.82,13.4 C30.82,15.0800084 30.2966719,16.386662 29.25,17.32 C28.2033281,18.253338 26.7533426,18.72 24.9,18.72 C24.166663,18.72 23.6400016,18.7000002 23.32,18.66 L23.32,22.6 L26,22.8 L26,24 L18.8,24 L18.8,22.8 L20.38,22.6 L20.38,10.64 Z M23.3,17.38 C23.6066682,17.446667 24.126663,17.48 24.86,17.48 C25.7533378,17.48 26.4699973,17.1700031 27.01,16.55 C27.5500027,15.9299969 27.82,14.9000072 27.82,13.46 C27.82,12.3399944 27.5766691,11.5233359 27.09,11.01 C26.6033309,10.4966641 25.860005,10.24 24.86,10.24 C24.4866648,10.24 24.100002,10.2666664 23.7,10.32 C23.5133324,10.3466668 23.3800004,10.36 23.3,10.36 L23.3,17.38 Z M31.9,20.88 C31.9,19.6666606 32.5099939,18.7533364 33.73,18.14 C34.9500061,17.5266636 36.526657,17.2133334 38.46,17.2 L38.46,16.74 C38.46,16.1933306 38.4033339,15.7666682 38.29,15.46 C38.1766661,15.1533318 37.9700015,14.9233341 37.67,14.77 C37.3699985,14.6166659 36.9333362,14.54 36.36,14.54 C35.7066634,14.54 35.1200026,14.6233325 34.6,14.79 C34.0799974,14.9566675 33.5400028,15.173332 32.98,15.44 L32.36,14.16 C32.560001,13.9866658 32.8966643,13.7800012 33.37,13.54 C33.8433357,13.2999988 34.4066634,13.0900009 35.06,12.91 C35.7133366,12.7299991 36.3866632,12.64 37.08,12.64 C38.1066718,12.64 38.9099971,12.773332 39.49,13.04 C40.0700029,13.306668 40.4866654,13.7333304 40.74,14.32 C40.9933346,14.9066696 41.12,15.6933284 41.12,16.68 L41.12,22.8 L42.2,22.8 L42.2,23.92 C41.933332,23.986667 41.5533358,24.053333 41.06,24.12 C40.5666642,24.186667 40.1333352,24.22 39.76,24.22 C39.3066644,24.22 39.0033341,24.153334 38.85,24.02 C38.6966659,23.886666 38.62,23.6133354 38.62,23.2 L38.62,22.66 C38.2599982,23.060002 37.7933362,23.4199984 37.22,23.74 C36.6466638,24.0600016 36.0000036,24.22 35.28,24.22 C34.6666636,24.22 34.1033359,24.0900013 33.59,23.83 C33.0766641,23.5699987 32.6666682,23.1900025 32.36,22.69 C32.0533318,22.1899975 31.9,21.5866702 31.9,20.88 Z M36.56,22.56 C36.8400014,22.56 37.1599982,22.4766675 37.52,22.31 C37.88,22.1433325 38.193332,21.9400012 38.46,21.7 L38.46,18.42 C37.259994,18.42 36.3633363,18.6233313 35.77,19.03 C35.1766637,19.4366687 34.88,19.9599968 34.88,20.6 C34.88,21.2400032 35.0299985,21.726665 35.33,22.06 C35.6300015,22.393335 36.0399974,22.56 36.56,22.56 Z M52.46,24.2 C52.0199978,24.2 51.700001,24.1066676 51.5,23.92 C51.299999,23.7333324 51.2,23.4533352 51.2,23.08 L51.2,22.54 C50.8399982,22.9800022 50.3333366,23.3699983 49.68,23.71 C49.0266634,24.0500017 48.3733366,24.22 47.72,24.22 C46.4399936,24.22 45.5266694,23.8900033 44.98,23.23 C44.4333306,22.5699967 44.16,21.4800076 44.16,19.96 L44.16,14.32 L43.16,14.04 L43.16,12.9 L46.56,12.64 L46.58,12.64 L46.98,12.92 L46.98,19.96 C46.98,20.9333382 47.0999988,21.6133314 47.34,22 C47.5800012,22.3866686 48.0266634,22.58 48.68,22.58 C49.4666706,22.58 50.1999966,22.2733364 50.88,21.66 L50.88,14.32 L49.54,14.02 L49.54,12.9 L53.16,12.64 L53.2,12.64 L53.68,12.92 L53.68,22.76 L54.8,22.76 L54.78,23.9 C54.7266664,23.9133334 54.4800022,23.9666662 54.04,24.06 C53.5999978,24.1533338 53.0733364,24.2 52.46,24.2 Z M57.38,9.38 L55.9,9.12 L55.9,8.04 L59.6,7.6 L59.64,7.6 L60.18,7.98 L60.18,22.64 L61.64,22.8 L61.64,24 L55.98,24 L55.98,22.8 L57.38,22.62 L57.38,9.38 Z M66.6,26.72 C67.133336,26.5466658 67.6299977,26.2400022 68.09,25.8 C68.5500023,25.3599978 68.8866656,24.80667 69.1,24.14 C69.2466674,23.6866644 69.353333,23.1433365 69.42,22.51 C69.486667,21.8766635 69.52,20.9866724 69.52,19.84 L69.52,10.66 L67.72,10.38 L67.72,9.14 L74.12,9.14 L74.12,10.38 L72.44,10.64 L72.44,18.5 C72.44,19.9266738 72.4233335,21.0299961 72.39,21.81 C72.3566665,22.5900039 72.2866672,23.213331 72.18,23.68 C71.8999986,24.7600054 71.326671,25.6566631 70.46,26.37 C69.593329,27.0833369 68.526673,27.5466656 67.26,27.76 L66.6,26.72 Z M75.58,18.46 C75.58,17.2066604 75.8299975,16.1400044 76.33,15.26 C76.8300025,14.3799956 77.4999958,13.7166689 78.34,13.27 C79.1800042,12.8233311 80.0933284,12.6 81.08,12.6 C82.7600084,12.6 84.0566621,13.1166615 84.97,14.15 C85.8833379,15.1833385 86.34,16.5866578 86.34,18.36 C86.34,19.626673 86.0900025,20.7033289 85.59,21.59 C85.0899975,22.4766711 84.4233375,23.1366645 83.59,23.57 C82.7566625,24.0033355 81.840005,24.22 80.84,24.22 C79.173325,24.22 77.8800046,23.7033385 76.96,22.67 C76.0399954,21.6366615 75.58,20.2333422 75.58,18.46 Z M81,22.92 C82.5066742,22.92 83.26,21.4666812 83.26,18.56 C83.26,17.0399924 83.0800018,15.8833373 82.72,15.09 C82.3599982,14.2966627 81.7733374,13.9 80.96,13.9 C79.4133256,13.9 78.64,15.3533188 78.64,18.26 C78.64,19.7800076 78.8299981,20.9366627 79.21,21.73 C79.5900019,22.5233373 80.1866626,22.92 81,22.92 Z M89.28,14.78 L88,14.42 L88,13.04 L91.32,12.62 L91.38,12.62 L91.88,13.02 L91.88,13.8 L91.86,14.28 C92.326669,13.8399978 92.9333296,13.4600016 93.68,13.14 C94.4266704,12.8199984 95.1799962,12.66 95.94,12.66 C96.7533374,12.66 97.3899977,12.8099985 97.85,13.11 C98.3100023,13.4100015 98.639999,13.8799968 98.84,14.52 C99.040001,15.1600032 99.14,16.0266612 99.14,17.12 L99.14,22.64 L100.36,22.8 L100.36,24 L95.2,24 L95.2,22.8 L96.28,22.64 L96.28,17.12 C96.28,16.4266632 96.2333338,15.8833353 96.14,15.49 C96.0466662,15.0966647 95.8766679,14.8100009 95.63,14.63 C95.3833321,14.4499991 95.0333356,14.36 94.58,14.36 C93.8199962,14.36 93.006671,14.6866634 92.14,15.34 L92.14,22.62 L93.34,22.8 L93.34,24 L88.12,24 L88.12,22.8 L89.28,22.62 L89.28,14.78 Z M111.56,24.22 C110.839996,24.22 110.193336,24.1600006 109.62,24.04 C109.046664,23.9199994 108.40667,23.760001 107.7,23.56 C107.233331,23.426666 106.920001,23.3533334 106.76,23.34 L106.94,19.64 L108.56,19.64 L109,22.22 C109.173334,22.4066676 109.483331,22.5733326 109.93,22.72 C110.376669,22.8666674 110.886664,22.94 111.46,22.94 C112.353338,22.94 113.023331,22.7433353 113.47,22.35 C113.916669,21.9566647 114.14,21.4066702 114.14,20.7 C114.14,20.233331 114.006668,19.8300017 113.74,19.49 C113.473332,19.1499983 113.106669,18.8433347 112.64,18.57 C112.173331,18.2966653 111.533337,17.9800018 110.72,17.62 C109.613328,17.1133308 108.69667,16.5100035 107.97,15.81 C107.24333,15.1099965 106.88,14.160006 106.88,12.96 C106.88,12.2133296 107.073331,11.5366697 107.46,10.93 C107.846669,10.3233303 108.423329,9.8433351 109.19,9.49 C109.956671,9.1366649 110.893328,8.96 112,8.96 C112.653337,8.96 113.229998,9.0066662 113.73,9.1 C114.230002,9.1933338 114.77333,9.3199992 115.36,9.48 C115.706668,9.5733338 115.966666,9.6333332 116.14,9.66 L116.02,13.16 L114.42,13.16 L114,10.7 C113.879999,10.5799994 113.640002,10.4633339 113.28,10.35 C112.919998,10.2366661 112.520002,10.18 112.08,10.18 C111.279996,10.18 110.676669,10.3633315 110.27,10.73 C109.863331,11.0966685 109.66,11.5866636 109.66,12.2 C109.66,12.6933358 109.809998,13.1199982 110.11,13.48 C110.410001,13.8400018 110.773331,14.1433321 111.2,14.39 C111.626669,14.6366679 112.299995,14.9866644 113.22,15.44 C113.96667,15.8000018 114.606664,16.1533316 115.14,16.5 C115.673336,16.8466684 116.133331,17.2966639 116.52,17.85 C116.906669,18.4033361 117.1,19.0533296 117.1,19.8 C117.1,20.533337 116.916669,21.23333 116.55,21.9 C116.183331,22.56667 115.583338,23.1199978 114.75,23.56 C113.916662,24.0000022 112.85334,24.22 111.56,24.22 Z M118.32,18.5 C118.32,17.3533276 118.549998,16.3333378 119.01,15.44 C119.470002,14.5466622 120.129996,13.8500025 120.99,13.35 C121.850004,12.8499975 122.853328,12.6 124,12.6 C124.533336,12.6 124.993331,12.6399996 125.38,12.72 C125.766669,12.8000004 126.199998,12.906666 126.68,13.04 L127.26,13.2 L127.14,16.62 L125.4,16.62 L124.9,14.42 C124.82,14.0733316 124.42667,13.9 123.72,13.9 C122.97333,13.9 122.390002,14.2266634 121.97,14.88 C121.549998,15.5333366 121.333333,16.5533264 121.32,17.94 C121.32,19.406674 121.573331,20.5299961 122.08,21.31 C122.586669,22.0900039 123.259996,22.48 124.1,22.48 C125.113338,22.48 126.046662,22.2066694 126.9,21.66 L127.36,22.7 C127.013332,23.0733352 126.483337,23.4199984 125.77,23.74 C125.056663,24.0600016 124.286671,24.22 123.46,24.22 C121.753325,24.22 120.470004,23.6933386 119.61,22.64 C118.749996,21.5866614 118.32,20.2066752 118.32,18.5 Z M128.96,18.46 C128.96,17.2066604 129.209998,16.1400044 129.71,15.26 C130.210002,14.3799956 130.879996,13.7166689 131.72,13.27 C132.560004,12.8233311 133.473328,12.6 134.46,12.6 C136.140008,12.6 137.436662,13.1166615 138.35,14.15 C139.263338,15.1833385 139.72,16.5866578 139.72,18.36 C139.72,19.626673 139.470003,20.7033289 138.97,21.59 C138.469997,22.4766711 137.803337,23.1366645 136.97,23.57 C136.136663,24.0033355 135.220005,24.22 134.22,24.22 C132.553325,24.22 131.260005,23.7033385 130.34,22.67 C129.419995,21.6366615 128.96,20.2333422 128.96,18.46 Z M134.38,22.92 C135.886674,22.92 136.64,21.4666812 136.64,18.56 C136.64,17.0399924 136.460002,15.8833373 136.1,15.09 C135.739998,14.2966627 135.153337,13.9 134.34,13.9 C132.793326,13.9 132.02,15.3533188 132.02,18.26 C132.02,19.7800076 132.209998,20.9366627 132.59,21.73 C132.970002,22.5233373 133.566663,22.92 134.38,22.92 Z M144.9,24.18 C144.059996,24.18 143.440002,23.9866686 143.04,23.6 C142.64,23.2133314 142.44,22.6000042 142.44,21.76 L142.44,14.42 L141.14,14.42 L141.14,13.38 C141.246667,13.3399998 141.439999,13.2700005 141.72,13.17 C142.000001,13.0699995 142.213333,12.986667 142.36,12.92 C142.586668,12.7466658 142.779999,12.4466688 142.94,12.02 C143.060001,11.7399986 143.279998,11.0466722 143.6,9.94 L145.2,9.94 L145.28,12.88 L148.34,12.88 L148.34,14.42 L145.3,14.42 L145.3,20.04 C145.3,20.7866704 145.32,21.3133318 145.36,21.62 C145.4,21.9266682 145.486666,22.1233329 145.62,22.21 C145.753334,22.2966671 145.986665,22.34 146.32,22.34 C146.653335,22.34 146.999998,22.3033337 147.36,22.23 C147.720002,22.1566663 148.019999,22.0666672 148.26,21.96 L148.64,23.08 C148.266665,23.3600014 147.720004,23.6133322 147,23.84 C146.279996,24.0666678 145.580003,24.18 144.9,24.18 Z M153.06,24.18 C152.219996,24.18 151.600002,23.9866686 151.2,23.6 C150.8,23.2133314 150.6,22.6000042 150.6,21.76 L150.6,14.42 L149.3,14.42 L149.3,13.38 C149.406667,13.3399998 149.599999,13.2700005 149.88,13.17 C150.160001,13.0699995 150.373333,12.986667 150.52,12.92 C150.746668,12.7466658 150.939999,12.4466688 151.1,12.02 C151.220001,11.7399986 151.439998,11.0466722 151.76,9.94 L153.36,9.94 L153.44,12.88 L156.5,12.88 L156.5,14.42 L153.46,14.42 L153.46,20.04 C153.46,20.7866704 153.48,21.3133318 153.52,21.62 C153.56,21.9266682 153.646666,22.1233329 153.78,22.21 C153.913334,22.2966671 154.146665,22.34 154.48,22.34 C154.813335,22.34 155.159998,22.3033337 155.52,22.23 C155.880002,22.1566663 156.179999,22.0666672 156.42,21.96 L156.8,23.08 C156.426665,23.3600014 155.880004,23.6133322 155.16,23.84 C154.439996,24.0666678 153.740003,24.18 153.06,24.18 Z" id="PaulJonScott" fill="#000000" fill-rule="nonzero"></path>
        <path d="M37.839,42.121 C37.0909963,42.121 36.4585026,41.9486684 35.9415,41.604 C35.4244974,41.2593316 35.0340013,40.7735031 34.77,40.1465 C34.5059987,39.5194969 34.374,38.7916708 34.374,37.963 C34.374,37.1196624 34.5334984,36.3790032 34.8525,35.741 C35.1715016,35.1029968 35.6096639,34.6098351 36.167,34.2615 C36.7243361,33.9131649 37.3513299,33.739 38.048,33.739 C39.1920057,33.739 40.066497,34.1001631 40.6715,34.8225 C41.276503,35.5448369 41.579,36.5439936 41.579,37.82 C41.579,38.6780043 41.415835,39.4314968 41.0895,40.0805 C40.763165,40.7295032 40.3158362,41.2318316 39.7475,41.5875 C39.1791638,41.9431684 38.5430035,42.121 37.839,42.121 Z M37.982,34.311 C37.2706631,34.311 36.7096687,34.6208302 36.299,35.2405 C35.8883313,35.8601698 35.683,36.7676607 35.683,37.963 C35.683,39.0630055 35.8828313,39.9338301 36.2825,40.5755 C36.6821687,41.2171699 37.2413297,41.538 37.96,41.538 C38.6640035,41.538 39.2231646,41.2190032 39.6375,40.581 C40.0518354,39.9429968 40.259,39.0263393 40.259,37.831 C40.259,36.7236611 40.061002,35.8601698 39.665,35.2405 C39.268998,34.6208302 38.7080036,34.311 37.982,34.311 Z M43.361,34.509 L42.415,34.377 L42.415,33.827 L48.3,33.827 L48.41,35.697 L47.695,35.697 L47.365,34.476 L44.538,34.399 L44.538,37.589 L46.529,37.556 L46.716,36.643 L47.299,36.643 L47.299,39.217 L46.727,39.217 L46.529,38.26 L44.538,38.216 L44.538,41.351 L46.254,41.461 L46.254,42 L42.481,42 L42.481,41.461 L43.361,41.351 L43.361,34.509 Z M50.17,34.509 L49.224,34.377 L49.224,33.827 L55.109,33.827 L55.219,35.697 L54.504,35.697 L54.174,34.476 L51.347,34.399 L51.347,37.589 L53.338,37.556 L53.525,36.643 L54.108,36.643 L54.108,39.217 L53.536,39.217 L53.338,38.26 L51.347,38.216 L51.347,41.351 L53.063,41.461 L53.063,42 L49.29,42 L49.29,41.461 L50.17,41.351 L50.17,34.509 Z M57.177,34.509 L56.154,34.377 L56.154,33.827 L59.388,33.827 L59.388,34.377 L58.365,34.509 L58.365,41.351 L59.388,41.472 L59.388,42 L56.165,42 L56.165,41.461 L57.177,41.351 L57.177,34.509 Z M64.151,42.121 C63.3443293,42.121 62.6568362,41.9468351 62.0885,41.5985 C61.5201638,41.2501649 61.0893348,40.7606698 60.796,40.13 C60.5026652,39.4993302 60.356,38.7586709 60.356,37.908 C60.356,37.0866626 60.5283316,36.3606698 60.873,35.73 C61.2176684,35.0993302 61.6906637,34.6098351 62.292,34.2615 C62.8933363,33.9131649 63.5679963,33.739 64.316,33.739 C64.8806695,33.739 65.558996,33.8269991 66.351,34.003 L66.714,34.069 L66.604,36.049 L65.867,36.049 L65.592,34.652 C65.4893328,34.5639996 65.3115013,34.4888336 65.0585,34.4265 C64.8054987,34.3641664 64.4956685,34.333 64.129,34.333 C63.6596643,34.333 63.2416685,34.466832 62.875,34.7345 C62.5083315,35.002168 62.220501,35.3963307 62.0115,35.917 C61.802499,36.4376693 61.698,37.0609964 61.698,37.787 C61.698,38.4763368 61.7896658,39.1033305 61.973,39.668 C62.1563342,40.2326695 62.4349981,40.6818317 62.809,41.0155 C63.1830019,41.3491683 63.6449972,41.516 64.195,41.516 C64.5836686,41.516 64.882499,41.4830003 65.0915,41.417 C65.300501,41.3509997 65.4783326,41.2556673 65.625,41.131 L66.087,40.053 L66.78,40.141 L66.516,41.703 C66.3619992,41.7103334 66.1346682,41.7616662 65.834,41.857 C65.5699987,41.9376671 65.3151679,42.0018331 65.0695,42.0495 C64.8238321,42.0971669 64.5176685,42.121 64.151,42.121 Z M68.793,34.509 L67.77,34.377 L67.77,33.827 L71.004,33.827 L71.004,34.377 L69.981,34.509 L69.981,41.351 L71.004,41.472 L71.004,42 L67.781,42 L67.781,41.461 L68.793,41.351 L68.793,34.509 Z M74.799,33.761 L76.009,33.761 L78.682,41.351 L79.364,41.461 L79.364,42 L76.46,42 L76.46,41.461 L77.373,41.351 L76.856,39.723 L73.644,39.723 L73.127,41.351 L74.073,41.461 L74.073,42 L71.466,42 L71.466,41.461 L72.148,41.351 L74.799,33.761 Z M75.492,35.521 L75.217,34.553 L74.953,35.543 L73.842,39.074 L76.647,39.074 L75.492,35.521 Z M80.662,34.509 L79.771,34.377 L79.771,33.827 L82.928,33.827 L82.928,34.377 L81.839,34.509 L81.839,41.351 L84.677,41.252 L85.326,39.404 L85.997,39.503 L85.612,42 L79.749,42 L79.749,41.461 L80.662,41.351 L80.662,34.509 Z M88.593,33.827 L91.574,33.827 L91.574,34.377 L90.54,34.509 L92.047,39.635 L92.366,41.164 L92.729,39.635 L93.994,35.444 L93.697,34.509 L92.916,34.377 L92.916,33.827 L96.007,33.827 L96.007,34.377 L94.929,34.509 L96.414,39.635 L96.788,41.285 L97.096,39.635 L98.482,34.509 L97.393,34.377 L97.393,33.827 L100.011,33.827 L100.011,34.377 L99.285,34.509 L97.096,42.055 L96.018,42.055 L94.335,36.544 L92.707,42.055 L91.662,42.055 L89.319,34.52 L88.593,34.377 L88.593,33.827 Z M101.221,34.509 L100.319,34.377 L100.319,33.827 L105.918,33.827 L106.072,35.532 L105.445,35.532 L105.126,34.465 L102.398,34.399 L102.398,37.501 L104.235,37.468 L104.389,36.555 L104.994,36.555 L104.994,39.085 L104.389,39.085 L104.235,38.139 L102.398,38.106 L102.398,41.384 L105.5,41.274 L106.083,39.888 L106.732,40.086 L106.413,42 L100.308,42 L100.308,41.461 L101.221,41.351 L101.221,34.509 Z M108.382,34.509 L107.48,34.377 L107.48,33.827 L108.965,33.827 C109.214335,33.827 109.529665,33.8123335 109.911,33.783 C110.263002,33.7536665 110.523332,33.739 110.692,33.739 C111.704005,33.739 112.428164,33.8966651 112.8645,34.212 C113.300836,34.5273349 113.519,34.9893303 113.519,35.598 C113.519,36.1186693 113.368668,36.5659981 113.068,36.94 C112.767332,37.3140019 112.356669,37.5486662 111.836,37.644 C112.540004,37.6293333 113.093665,37.7943316 113.497,38.139 C113.900335,38.4836684 114.102,38.952997 114.102,39.547 C114.102,40.2876704 113.839836,40.8926643 113.3155,41.362 C112.791164,41.8313357 111.924006,42.066 110.714,42.066 C110.449999,42.066 110.197001,42.0550001 109.955,42.033 C109.382997,42.0109999 109.042001,42 108.932,42 L107.469,42 L107.469,41.461 L108.382,41.351 L108.382,34.509 Z M109.548,37.435 C109.650667,37.4423334 109.859665,37.446 110.175,37.446 L110.78,37.446 C111.293336,37.446 111.681999,37.3030014 111.946,37.017 C112.210001,36.7309986 112.342,36.3240026 112.342,35.796 C112.342,35.2826641 112.210001,34.9068345 111.946,34.6685 C111.681999,34.4301655 111.231003,34.311 110.593,34.311 C110.328999,34.311 110.057668,34.3256665 109.779,34.355 L109.548,34.377 L109.548,37.435 Z M109.548,41.384 C109.716668,41.442667 110.097997,41.472 110.692,41.472 C111.43267,41.472 111.969832,41.3198349 112.3035,41.0155 C112.637168,40.7111651 112.804,40.2730029 112.804,39.701 C112.804,39.1363305 112.659168,38.725668 112.3695,38.469 C112.079832,38.212332 111.612337,38.084 110.967,38.084 C110.218996,38.084 109.746001,38.0913333 109.548,38.106 L109.548,41.384 Z M117.688,42.121 C117.306665,42.121 116.965668,42.0880003 116.665,42.022 C116.364332,41.9559997 116.034335,41.8680006 115.675,41.758 C115.454999,41.6773329 115.290001,41.6333334 115.18,41.626 L115.268,39.635 L115.972,39.635 L116.159,41.065 C116.283667,41.1823339 116.487165,41.2868329 116.7695,41.3785 C117.051835,41.4701671 117.361665,41.516 117.699,41.516 C118.256336,41.516 118.679832,41.3913346 118.9695,41.142 C119.259168,40.8926654 119.404,40.5480022 119.404,40.108 C119.404,39.8219986 119.325167,39.5763344 119.1675,39.371 C119.009833,39.1656656 118.800835,38.9896674 118.5405,38.843 C118.280165,38.6963326 117.922669,38.524001 117.468,38.326 C117.057331,38.1426658 116.699835,37.9556676 116.3955,37.765 C116.091165,37.5743324 115.827168,37.3195016 115.6035,37.0005 C115.379832,36.6814984 115.268,36.2983356 115.268,35.851 C115.268,35.4476647 115.376166,35.0865016 115.5925,34.7675 C115.808834,34.4484984 116.120498,34.1973343 116.5275,34.014 C116.934502,33.8306658 117.409331,33.739 117.952,33.739 C118.289335,33.739 118.588165,33.7646664 118.8485,33.816 C119.108835,33.8673336 119.403998,33.9369996 119.734,34.025 C119.880667,34.0763336 120.005333,34.1093333 120.108,34.124 L120.042,35.972 L119.371,35.972 L119.151,34.619 C119.077666,34.5456663 118.925501,34.4760003 118.6945,34.41 C118.463499,34.3439997 118.212335,34.311 117.941,34.311 C117.434997,34.311 117.051835,34.4173323 116.7915,34.63 C116.531165,34.8426677 116.401,35.1506647 116.401,35.554 C116.401,35.8473348 116.479833,36.092999 116.6375,36.291 C116.795167,36.489001 116.991332,36.657666 117.226,36.797 C117.460668,36.936334 117.834664,37.1269988 118.348,37.369 C118.824669,37.5963345 119.213332,37.8016658 119.514,37.985 C119.814668,38.1683343 120.073166,38.4084985 120.2895,38.7055 C120.505834,39.0025015 120.614,39.3563313 120.614,39.767 C120.614,40.1556686 120.505834,40.5296649 120.2895,40.889 C120.073166,41.2483351 119.743169,41.5434988 119.2995,41.7745 C118.855831,42.0055012 118.31867,42.121 117.688,42.121 Z M122.649,34.509 L121.626,34.377 L121.626,33.827 L124.86,33.827 L124.86,34.377 L123.837,34.509 L123.837,41.351 L124.86,41.472 L124.86,42 L121.637,42 L121.637,41.461 L122.649,41.351 L122.649,34.509 Z M128.655,34.41 L126.763,34.476 L126.378,36.775 L125.652,36.775 L125.839,33.827 L132.692,33.827 L132.824,36.775 L132.131,36.775 L131.768,34.476 L129.865,34.41 L129.865,41.351 L131.427,41.461 L131.427,42 L127.225,42 L127.225,41.461 L128.655,41.351 L128.655,34.41 Z M134.496,34.509 L133.594,34.377 L133.594,33.827 L139.193,33.827 L139.347,35.532 L138.72,35.532 L138.401,34.465 L135.673,34.399 L135.673,37.501 L137.51,37.468 L137.664,36.555 L138.269,36.555 L138.269,39.085 L137.664,39.085 L137.51,38.139 L135.673,38.106 L135.673,41.384 L138.775,41.274 L139.358,39.888 L140.007,40.086 L139.688,42 L133.583,42 L133.583,41.461 L134.496,41.351 L134.496,34.509 Z" id="OFFICIALWEBSITE" fill="#000000" fill-rule="nonzero"></path>
    </g>
</svg>